<mxfile host="65bd71144e">
    <diagram id="UFwFnv3ArxUYOBNZyXNq" name="Page-1">
        <mxGraphModel dx="1584" dy="575" grid="1" gridSize="10" guides="1" tooltips="1" connect="1" arrows="1" fold="1" page="1" pageScale="1" pageWidth="850" pageHeight="1100" math="0" shadow="0">
            <root>
                <mxCell id="0"/>
                <mxCell id="1" parent="0"/>
                <mxCell id="26" value="" style="edgeStyle=none;html=1;fontSize=10;fontColor=#0000FF;" edge="1" parent="1" source="2" target="17">
                    <mxGeometry relative="1" as="geometry"/>
                </mxCell>
                <mxCell id="27" value="" style="edgeStyle=none;html=1;fontSize=10;fontColor=#0000FF;" edge="1" parent="1" source="2" target="18">
                    <mxGeometry relative="1" as="geometry"/>
                </mxCell>
                <mxCell id="2" value="&amp;nbsp;Author&amp;nbsp;&lt;br&gt;&lt;font style=&quot;font-size: 10px&quot; color=&quot;#33ff33&quot;&gt;Entity&lt;/font&gt;" style="ellipse;whiteSpace=wrap;html=1;" vertex="1" parent="1">
                    <mxGeometry x="80" y="240" width="120" height="80" as="geometry"/>
                </mxCell>
                <mxCell id="34" value="" style="edgeStyle=none;html=1;fontSize=10;fontColor=#0000FF;" edge="1" parent="1" source="3" target="30">
                    <mxGeometry relative="1" as="geometry"/>
                </mxCell>
                <mxCell id="3" value="Books&lt;br&gt;&lt;font style=&quot;font-size: 10px&quot; color=&quot;#33ff33&quot;&gt;Entity&lt;/font&gt;" style="ellipse;whiteSpace=wrap;html=1;" vertex="1" parent="1">
                    <mxGeometry x="440" y="240" width="120" height="80" as="geometry"/>
                </mxCell>
                <mxCell id="4" value="Writes&lt;br&gt;&lt;font color=&quot;#ff3333&quot; style=&quot;font-size: 10px&quot;&gt;Relationship&lt;/font&gt;" style="rhombus;whiteSpace=wrap;html=1;" vertex="1" parent="1">
                    <mxGeometry x="250" y="240" width="130" height="80" as="geometry"/>
                </mxCell>
                <mxCell id="7" value="" style="curved=1;endArrow=classic;html=1;" edge="1" parent="1" source="4" target="2">
                    <mxGeometry width="50" height="50" relative="1" as="geometry">
                        <mxPoint x="190" y="250" as="sourcePoint"/>
                        <mxPoint x="240" y="200" as="targetPoint"/>
                        <Array as="points">
                            <mxPoint x="260" y="220"/>
                            <mxPoint x="220" y="250"/>
                        </Array>
                    </mxGeometry>
                </mxCell>
                <mxCell id="8" value="" style="curved=1;endArrow=classic;html=1;exitX=1;exitY=0;exitDx=0;exitDy=0;" edge="1" parent="1" source="4" target="3">
                    <mxGeometry width="50" height="50" relative="1" as="geometry">
                        <mxPoint x="371.2660606060606" y="234.24242424242425" as="sourcePoint"/>
                        <mxPoint x="258.73692307692306" y="213.0769230769231" as="targetPoint"/>
                        <Array as="points">
                            <mxPoint x="410" y="240"/>
                            <mxPoint x="410" y="270"/>
                        </Array>
                    </mxGeometry>
                </mxCell>
                <mxCell id="9" value="" style="curved=1;endArrow=classic;html=1;fontSize=10;fontColor=#33FF33;exitX=0.5;exitY=1;exitDx=0;exitDy=0;entryX=0.5;entryY=0;entryDx=0;entryDy=0;" edge="1" parent="1" source="3" target="11">
                    <mxGeometry width="50" height="50" relative="1" as="geometry">
                        <mxPoint x="440" y="410" as="sourcePoint"/>
                        <mxPoint x="480" y="410" as="targetPoint"/>
                        <Array as="points">
                            <mxPoint x="470" y="340"/>
                            <mxPoint x="580" y="390"/>
                        </Array>
                    </mxGeometry>
                </mxCell>
                <mxCell id="11" value="Printed By&lt;br&gt;&lt;span style=&quot;color: rgb(255 , 51 , 51) ; font-size: 10px&quot;&gt;Relationship&lt;/span&gt;" style="rhombus;whiteSpace=wrap;html=1;fontSize=12;fontColor=#FFFFFF;align=center;" vertex="1" parent="1">
                    <mxGeometry x="425" y="440" width="180" height="80" as="geometry"/>
                </mxCell>
                <mxCell id="15" value="Printer&lt;br&gt;&lt;span style=&quot;color: rgb(51 , 255 , 51) ; font-size: 10px&quot;&gt;Entity&lt;/span&gt;" style="ellipse;whiteSpace=wrap;html=1;fontSize=12;fontColor=#FFFFFF;" vertex="1" parent="1">
                    <mxGeometry x="455" y="660" width="120" height="80" as="geometry"/>
                </mxCell>
                <mxCell id="16" value="" style="curved=1;endArrow=classic;html=1;fontSize=12;fontColor=#FFFFFF;entryX=0.5;entryY=0;entryDx=0;entryDy=0;" edge="1" parent="1" source="11" target="15">
                    <mxGeometry width="50" height="50" relative="1" as="geometry">
                        <mxPoint x="420" y="600" as="sourcePoint"/>
                        <mxPoint x="470" y="550" as="targetPoint"/>
                        <Array as="points">
                            <mxPoint x="480" y="570"/>
                            <mxPoint x="510" y="590"/>
                        </Array>
                    </mxGeometry>
                </mxCell>
                <mxCell id="17" value="Age&lt;br&gt;&lt;span style=&quot;color: rgb(0 , 0 , 255) ; font-size: 10px&quot;&gt;Attribute&lt;/span&gt;" style="rounded=0;whiteSpace=wrap;html=1;fontSize=12;fontColor=#FFFFFF;" vertex="1" parent="1">
                    <mxGeometry x="80" y="400" width="120" height="60" as="geometry"/>
                </mxCell>
                <mxCell id="18" value="Name&lt;br&gt;&lt;span style=&quot;color: rgb(0 , 0 , 255) ; font-size: 10px&quot;&gt;Attribute&lt;/span&gt;" style="rounded=0;whiteSpace=wrap;html=1;fontSize=12;fontColor=#FFFFFF;" vertex="1" parent="1">
                    <mxGeometry x="80" y="80" width="120" height="60" as="geometry"/>
                </mxCell>
                <mxCell id="19" value="Writing Style&lt;br&gt;&lt;font style=&quot;font-size: 10px&quot; color=&quot;#0000ff&quot;&gt;Attribute&lt;/font&gt;" style="rounded=0;whiteSpace=wrap;html=1;fontSize=12;fontColor=#FFFFFF;" vertex="1" parent="1">
                    <mxGeometry x="-110" y="250" width="120" height="60" as="geometry"/>
                </mxCell>
                <mxCell id="25" value="" style="endArrow=classic;html=1;fontSize=10;fontColor=#0000FF;entryX=1;entryY=0.5;entryDx=0;entryDy=0;exitX=0;exitY=0.5;exitDx=0;exitDy=0;" edge="1" parent="1" source="2" target="19">
                    <mxGeometry width="50" height="50" relative="1" as="geometry">
                        <mxPoint x="10" y="270" as="sourcePoint"/>
                        <mxPoint x="60" y="220" as="targetPoint"/>
                    </mxGeometry>
                </mxCell>
                <mxCell id="35" value="" style="edgeStyle=none;html=1;fontSize=10;fontColor=#0000FF;" edge="1" parent="1" source="28" target="3">
                    <mxGeometry relative="1" as="geometry"/>
                </mxCell>
                <mxCell id="28" value="Chapters&lt;br&gt;&lt;span style=&quot;color: rgb(0 , 0 , 255) ; font-size: 10px&quot;&gt;Attribute&lt;/span&gt;" style="rounded=0;whiteSpace=wrap;html=1;fontSize=12;fontColor=#FFFFFF;" vertex="1" parent="1">
                    <mxGeometry x="630" y="270" width="120" height="60" as="geometry"/>
                </mxCell>
                <mxCell id="36" value="" style="edgeStyle=none;html=1;fontSize=10;fontColor=#0000FF;" edge="1" parent="1" source="29" target="3">
                    <mxGeometry relative="1" as="geometry"/>
                </mxCell>
                <mxCell id="29" value="Font&lt;br&gt;&lt;span style=&quot;color: rgb(0 , 0 , 255) ; font-size: 10px&quot;&gt;Attribute&lt;/span&gt;" style="rounded=0;whiteSpace=wrap;html=1;fontSize=12;fontColor=#FFFFFF;" vertex="1" parent="1">
                    <mxGeometry x="630" y="120" width="120" height="60" as="geometry"/>
                </mxCell>
                <mxCell id="30" value="&lt;font&gt;Pages&lt;br&gt;&lt;/font&gt;&lt;font style=&quot;font-size: 10px&quot; color=&quot;#0000ff&quot;&gt;Attribute&lt;/font&gt;" style="rounded=0;whiteSpace=wrap;html=1;fontSize=12;fontColor=#FFFFFF;" vertex="1" parent="1">
                    <mxGeometry x="440" y="120" width="120" height="60" as="geometry"/>
                </mxCell>
                <mxCell id="42" value="" style="edgeStyle=none;html=1;fontSize=12;fontColor=#FFFFFF;" edge="1" parent="1" source="37" target="15">
                    <mxGeometry relative="1" as="geometry"/>
                </mxCell>
                <mxCell id="37" value="Type&lt;br&gt;&lt;span style=&quot;color: rgb(0 , 0 , 255) ; font-size: 10px&quot;&gt;Attribute&lt;/span&gt;" style="rounded=0;whiteSpace=wrap;html=1;fontSize=12;fontColor=#FFFFFF;" vertex="1" parent="1">
                    <mxGeometry x="640" y="670" width="120" height="60" as="geometry"/>
                </mxCell>
                <mxCell id="40" value="" style="edgeStyle=none;html=1;fontSize=12;fontColor=#FFFFFF;" edge="1" parent="1" source="38" target="15">
                    <mxGeometry relative="1" as="geometry"/>
                </mxCell>
                <mxCell id="38" value="Model&lt;br&gt;&lt;span style=&quot;color: rgb(0 , 0 , 255) ; font-size: 10px&quot;&gt;Attribute&lt;/span&gt;" style="rounded=0;whiteSpace=wrap;html=1;fontSize=12;fontColor=#FFFFFF;" vertex="1" parent="1">
                    <mxGeometry x="260" y="670" width="120" height="60" as="geometry"/>
                </mxCell>
                <mxCell id="41" value="" style="edgeStyle=none;html=1;fontSize=12;fontColor=#FFFFFF;" edge="1" parent="1" source="39" target="15">
                    <mxGeometry relative="1" as="geometry"/>
                </mxCell>
                <mxCell id="39" value="&lt;font style=&quot;font-size: 12px&quot;&gt;Settings&lt;/font&gt;&lt;br&gt;&lt;span style=&quot;color: rgb(0 , 0 , 255) ; font-size: 10px&quot;&gt;Attribute&lt;/span&gt;" style="rounded=0;whiteSpace=wrap;html=1;fontSize=12;fontColor=#FFFFFF;" vertex="1" parent="1">
                    <mxGeometry x="460" y="800" width="120" height="60" as="geometry"/>
                </mxCell>
            </root>
        </mxGraphModel>
    </diagram>
</mxfile>